<svg width="53" height="29" viewBox="0 0 53 29" fill="none" xmlns="http://www.w3.org/2000/svg">
<path fill-rule="evenodd" clip-rule="evenodd" d="M38.9043 0C39.2158 0.727802 39.3914 1.55229 39.3914 2.42579C39.3914 5.37318 37.3915 7.76251 34.9244 7.76251H0.487081C0.17566 7.03471 0 6.21023 0 5.33673C0 2.38933 1.99997 0 4.46707 0H38.9043Z" fill="#00FF38"/>
<path fill-rule="evenodd" clip-rule="evenodd" d="M52.2618 20.2925C52.5732 21.0203 52.7489 21.8448 52.7489 22.7183C52.7489 25.6657 50.7489 28.055 48.2818 28.055H13.8445C13.5331 27.3272 13.3574 26.5027 13.3574 25.6292C13.3574 22.6818 15.3574 20.2925 17.8245 20.2925H52.2618Z" fill="#00FF38"/>
<path fill-rule="evenodd" clip-rule="evenodd" d="M52.2636 17.8408C52.5747 17.1258 52.7503 16.3158 52.7503 15.4576C52.7503 12.5619 50.7519 10.2145 48.2868 10.2145H0.48669C0.175519 10.9295 0 11.7395 0 12.5977C0 15.4934 1.99837 17.8408 4.46349 17.8408H52.2636Z" fill="#00FF38"/>
</svg>
