<?xml version="1.0" encoding="UTF-8"?>
<svg version="1.1" xmlns="http://www.w3.org/2000/svg" width="48" height="48">
<path d="M0 0 C2.5575 0.144375 5.115 0.28875 7.75 0.4375 C8.54889648 0.48060303 9.34779297 0.52370605 10.17089844 0.56811523 C16.90085394 0.96903072 16.90085394 0.96903072 20 2 C20.33 2.66 20.66 3.32 21 4 C23.68026455 6.24180162 23.68026455 6.24180162 26 5.8125 C28.26082758 4.8940388 29.36530297 3.78330585 31 2 C34.01324195 0.49337903 36.68286377 0.82229627 40 1 C40.66 1.66 41.32 2.32 42 3 C41.34 3 40.68 3 40 3 C40 3.66 40 4.32 40 5 C39.34 5 38.68 5 38 5 C37.7525 5.639375 37.505 6.27875 37.25 6.9375 C36 9 36 9 34 9.5625 C33.34 9.706875 32.68 9.85125 32 10 C31.01 11.485 31.01 11.485 30 13 C32.68841859 15.25245881 34.64641875 16.88213958 38 18 C39.1875 21.5625 39.1875 21.5625 40 25 C32.61538462 25.49230769 32.61538462 25.49230769 29.5 23 C29.005 22.34 28.51 21.68 28 21 C27.67 22.32 27.34 23.64 27 25 C25.35 24.67 23.7 24.34 22 24 C21.67 24.66 21.34 25.32 21 26 C14.4 25.67 7.8 25.34 1 25 C0.67 16.75 0.34 8.5 0 0 Z M7 7 C5.79727181 9.40545638 5.89928528 10.94996953 5.9375 13.625 C5.94652344 14.44226563 5.95554687 15.25953125 5.96484375 16.1015625 C5.97644531 16.72804688 5.98804688 17.35453125 6 18 C12.26079448 18.43177893 15.09075703 17.92739438 20 14 C18.1831165 9.9447513 18.1831165 9.9447513 15 7 C12.28184714 6.7470234 9.74088051 6.8652026 7 7 Z M24 17 C23.01 18.485 23.01 18.485 22 20 C23.32 20.33 24.64 20.66 26 21 C26 20.01 26 19.02 26 18 C25.34 17.67 24.68 17.34 24 17 Z M35 19 C35.66 19.66 36.32 20.32 37 21 C37 20.34 37 19.68 37 19 C36.34 19 35.68 19 35 19 Z M21 20 C19.515 21.98 19.515 21.98 18 24 C19.32 23.34 20.64 22.68 22 22 C21.67 21.34 21.34 20.68 21 20 Z " fill="#D4D4D4" transform="translate(5,11)"/>
<path d="M0 0 C0.66 0.66 1.32 1.32 2 2 C1.34 2 0.68 2 0 2 C0 2.66 0 3.32 0 4 C-0.66 4 -1.32 4 -2 4 C-2.2475 4.639375 -2.495 5.27875 -2.75 5.9375 C-4 8 -4 8 -6 8.5625 C-6.66 8.706875 -7.32 8.85125 -8 9 C-8.99 10.485 -8.99 10.485 -10 12 C-7.31158141 14.25245881 -5.35358125 15.88213958 -2 17 C-0.8125 20.5625 -0.8125 20.5625 0 24 C-3.09498477 24.44214068 -5.00505499 24.68802791 -8 24 C-11.04971254 21.6508971 -13.5299147 18.94308035 -16 16 C-15.34 14.35 -14.68 12.7 -14 11 C-14.48210938 10.51789062 -14.96421875 10.03578125 -15.4609375 9.5390625 C-17.97395833 7.02604167 -20.48697917 4.51302083 -23 2 C-22.01 1.67 -21.02 1.34 -20 1 C-19.67 1.66 -19.34 2.32 -19 3 C-16.31973545 5.24180162 -16.31973545 5.24180162 -14 4.8125 C-11.73917242 3.8940388 -10.63469703 2.78330585 -9 1 C-5.98675805 -0.50662097 -3.31713623 -0.17770373 0 0 Z M-5 18 C-4.34 18.66 -3.68 19.32 -3 20 C-3 19.34 -3 18.68 -3 18 C-3.66 18 -4.32 18 -5 18 Z " fill="#365166" transform="translate(45,12)"/>
<path d="M0 0 C0.54269531 0.42152344 1.08539063 0.84304687 1.64453125 1.27734375 C2.35996094 1.82519531 3.07539062 2.37304688 3.8125 2.9375 C4.87404297 3.75541016 4.87404297 3.75541016 5.95703125 4.58984375 C8.04125052 6.16856248 8.04125052 6.16856248 11 7 C11.6875 9.0625 11.6875 9.0625 12 11 C5.13091437 11.71059507 5.13091437 11.71059507 2.09765625 9.8046875 C-0.91038973 6.98774091 -0.91038973 6.98774091 -2 5 C-1.71761621 2.88018747 -1.53077977 1.53077977 0 0 Z " fill="#3082AC" transform="translate(33,25)"/>
<path d="M0 0 C0.66 0 1.32 0 2 0 C2.33 0.66 2.66 1.32 3 2 C4.485 2.680625 4.485 2.680625 6 3.375 C6.99 3.91125 7.98 4.4475 9 5 C9.33397742 6.33317215 9.66725098 7.66652072 10 9 C11.50162528 10.7238883 11.50162528 10.7238883 13.375 12.1875 C13.98085938 12.69667969 14.58671875 13.20585937 15.2109375 13.73046875 C17.08296502 15.18938656 17.08296502 15.18938656 20 16 C19.67 16.99 19.34 17.98 19 19 C19 18.34 19 17.68 19 17 C18.01 17.33 17.02 17.66 16 18 C13.7363436 16.59554165 11.9791315 14.8032087 10 13 C9.01 13.99 8.02 14.98 7 16 C7 13.66666667 7 11.33333333 7 9 C5.26091045 6.9940444 5.26091045 6.9940444 3 5.25 C2.2575 4.63640625 1.515 4.0228125 0.75 3.390625 C0.1725 2.93171875 -0.405 2.4728125 -1 2 C-0.67 1.34 -0.34 0.68 0 0 Z " fill="#5B5C53" transform="translate(23,13)"/>
<path d="M0 0 C3.3 0 6.6 0 10 0 C10 0.33 10 0.66 10 1 C7.36 1 4.72 1 2 1 C1.67 4.63 1.34 8.26 1 12 C6.58500567 11.80101292 6.58500567 11.80101292 11 9 C11.99 9.33 12.98 9.66 14 10 C12.625 12 12.625 12 10 14 C6.59290617 14.36313853 3.4417386 14.18114414 0 14 C0 9.38 0 4.76 0 0 Z " fill="#777777" transform="translate(10,17)"/>
<path d="M0 0 C2.625 -0.1875 2.625 -0.1875 5 0 C4.75 2.375 4.75 2.375 4 5 C1.9375 6.3125 1.9375 6.3125 0 7 C-0.66 5.68 -1.32 4.36 -2 3 C-1.34 2.01 -0.68 1.02 0 0 Z " fill="#228DBD" transform="translate(33,16)"/>
<path d="M0 0 C1.65 0 3.3 0 5 0 C5 1.65 5 3.3 5 5 C3.35 4.67 1.7 4.34 0 4 C-0.33 4.66 -0.66 5.32 -1 6 C-1.66 6 -2.32 6 -3 6 C-2 4 -1 2 0 0 Z " fill="#351B22" transform="translate(27,31)"/>
<path d="M0 0 C0.33 0 0.66 0 1 0 C1 6.93 1 13.86 1 21 C0.67 21 0.34 21 0 21 C0 14.07 0 7.14 0 0 Z " fill="#181818" transform="translate(4,15)"/>
<path d="M0 0 C0.66 0 1.32 0 2 0 C2 0.66 2 1.32 2 2 C1.34 2 0.68 2 0 2 C0 1.34 0 0.68 0 0 Z " fill="#5F5F5F" transform="translate(19,20)"/>
<path d="M0 0 C2 1 2 1 2 1 Z " fill="#000000" transform="translate(43,28)"/>
<path d="" fill="#555555" transform="translate(0,0)"/>
<path d="" fill="#FFFFFF" transform="translate(0,0)"/>
</svg>
